<?xml version="1.0" standalone="no"?>
<!DOCTYPE svg PUBLIC "-//W3C//DTD SVG 20010904//EN"
 "http://www.w3.org/TR/2001/REC-SVG-20010904/DTD/svg10.dtd">
<svg version="1.0" xmlns="http://www.w3.org/2000/svg"
 width="1024.000000pt" height="1024.000000pt" viewBox="0 0 1024.000000 1024.000000"
 preserveAspectRatio="xMidYMid meet">
<metadata>
Created by potrace 1.11, written by Peter Selinger 2001-2013
</metadata>
<g transform="translate(0.000000,1024.000000) scale(0.100000,-0.100000)"
fill="#000000" stroke="none">
<path d="M4693 6640 c-12 -5 -30 -21 -40 -37 -17 -25 -18 -60 -18 -478 0 -418
1 -452 18 -477 23 -33 67 -49 105 -39 25 8 528 314 663 404 83 55 104 129 52
184 -27 28 -562 367 -672 425 -56 30 -72 32 -108 18z"/>
<path d="M7063 5340 c-46 -19 -57 -54 -61 -192 l-4 -128 -43 0 c-90 0 -145
-36 -145 -96 0 -62 61 -103 157 -104 l31 0 4 -332 c3 -314 4 -336 24 -379 27
-58 85 -116 143 -143 41 -19 64 -21 216 -21 182 0 193 2 272 61 41 31 93 135
93 186 0 56 -43 98 -99 98 -48 0 -74 -21 -100 -83 -29 -67 -40 -72 -160 -72
-58 0 -118 3 -133 8 -55 15 -58 37 -58 372 l0 305 168 0 c179 0 230 8 262 42
22 24 27 77 9 110 -21 39 -67 48 -259 48 l-180 0 0 115 c0 153 -19 199 -86
210 -16 2 -39 0 -51 -5z"/>
<path d="M1435 5011 c-54 -14 -108 -49 -220 -143 -159 -135 -160 -138 -160
-393 0 -187 1 -203 22 -241 23 -43 81 -99 199 -195 121 -98 102 -94 402 -94
l264 0 24 28 c32 37 32 87 0 124 l-24 28 -229 5 c-264 6 -245 0 -376 114 l-87
77 -1 67 c-2 103 1 225 7 243 5 17 135 131 189 165 26 17 55 20 250 24 272 7
295 15 295 104 0 43 -24 73 -68 86 -42 11 -440 12 -487 1z"/>
<path d="M2542 5010 c-13 -6 -30 -27 -39 -47 -14 -34 -14 -75 -3 -403 6 -201
16 -387 21 -414 11 -61 39 -106 89 -146 61 -48 108 -60 239 -60 133 0 157 8
295 98 43 29 82 52 87 52 5 0 9 -14 9 -30 0 -42 24 -96 48 -109 23 -12 71 -14
97 -5 43 17 45 38 45 526 0 421 -2 466 -18 498 -32 65 -126 65 -159 0 -9 -18
-13 -106 -13 -332 l0 -306 -112 -73 c-205 -132 -249 -147 -351 -118 -70 19
-70 17 -87 516 -10 296 -17 335 -65 353 -31 12 -52 12 -83 0z"/>
<path d="M4315 5011 c-54 -14 -108 -49 -220 -143 -159 -135 -160 -138 -160
-393 0 -187 1 -203 22 -241 23 -43 81 -99 199 -195 121 -98 102 -94 402 -94
l264 0 24 28 c32 37 32 87 0 124 l-24 28 -229 5 c-264 6 -245 0 -376 114 l-87
77 -1 67 c-2 103 1 225 7 243 5 17 135 131 189 165 26 17 55 20 250 24 272 7
295 15 295 104 0 43 -24 73 -68 86 -42 11 -440 12 -487 1z"/>
<path d="M5670 5011 c-83 -17 -232 -128 -273 -205 -21 -40 -22 -51 -22 -326
l0 -285 27 -47 c36 -60 127 -141 204 -179 l61 -30 184 3 c172 3 187 5 234 28
71 34 198 164 213 216 17 57 16 532 0 588 -24 83 -188 217 -287 236 -59 11
-286 12 -341 1z m323 -205 c48 -20 113 -88 120 -126 11 -54 8 -386 -4 -417
-13 -35 -53 -77 -99 -106 -31 -20 -49 -22 -165 -22 -124 0 -132 1 -177 28 -26
15 -60 44 -75 64 l-28 36 -1 190 c-1 105 2 206 7 225 8 39 66 103 113 126 41
21 262 22 309 2z"/>
<path d="M8299 5005 c-37 -20 -49 -62 -49 -174 l0 -96 167 -369 c93 -205 179
-381 194 -397 26 -27 31 -29 111 -29 75 0 87 3 106 23 23 24 53 86 241 498
l121 266 0 107 c0 74 -4 116 -15 135 -19 37 -66 57 -108 45 -47 -14 -67 -60
-67 -155 0 -82 16 -38 -232 -606 -22 -51 -43 -93 -48 -93 -4 0 -66 136 -138
303 -126 292 -131 305 -137 392 -8 101 -24 141 -61 155 -34 13 -54 12 -85 -5z"/>
</g>
</svg>
